<mxfile host="app.diagrams.net" modified="2022-04-18T04:08:02.052Z" agent="5.0 (Windows NT 10.0; WOW64) AppleWebKit/537.36 (KHTML, like Gecko) Chrome/99.0.4844.88 Safari/537.36" etag="9E0f4vSzGtGaJpnP4YiH" version="17.4.5" type="github" pages="2">
  <diagram id="D20y0_DvndxbKFobeDRj" name="Page-1">
    <mxGraphModel dx="1978" dy="1080" grid="0" gridSize="10" guides="1" tooltips="1" connect="1" arrows="1" fold="1" page="1" pageScale="1" pageWidth="4681" pageHeight="3300" math="0" shadow="0">
      <root>
        <mxCell id="0" />
        <mxCell id="1" parent="0" />
      </root>
    </mxGraphModel>
  </diagram>
  <diagram id="BB3hoROu2duw0FVO8R8i" name="Page-2">
    <mxGraphModel dx="1760" dy="1977" grid="0" gridSize="10" guides="1" tooltips="1" connect="1" arrows="1" fold="1" page="1" pageScale="1" pageWidth="4681" pageHeight="3300" math="0" shadow="0">
      <root>
        <mxCell id="0" />
        <mxCell id="1" parent="0" />
        <mxCell id="fNet2IkVntBWjfgV5bNR-112" value="&lt;span style=&quot;color: rgba(0 , 0 , 0 , 0) ; font-family: monospace ; font-size: 0px&quot;&gt;%3CmxGraphModel%3E%3Croot%3E%3CmxCell%20id%3D%220%22%2F%3E%3CmxCell%20id%3D%221%22%20parent%3D%220%22%2F%3E%3CmxCell%20id%3D%222%22%20value%3D%22%26lt%3Bp%20style%3D%26quot%3Bline-height%3A%200.7%26quot%3B%26gt%3B%26lt%3B%2Fp%26gt%3B%26lt%3Bh2%20style%3D%26quot%3Bfont-size%3A%2013px%26quot%3B%26gt%3B%26lt%3Bspan%20style%3D%26quot%3Bcolor%3A%20rgba(0%20%2C%200%20%2C%200%20%2C%200)%20%3B%20font-family%3A%20monospace%20%3B%20font-size%3A%200px%20%3B%20font-weight%3A%20400%26quot%3B%26gt%3B%253CmxGraphModel%253E%253Croot%253E%253CmxCell%2520id%253D%25220%2522%252F%253E%253CmxCell%2520id%253D%25221%2522%2520parent%253D%25220%2522%252F%253E%253CmxCell%2520id%253D%25222%2522%2520value%253D%2522%2526lt%253Bspan%2520style%253D%2526quot%253Bcolor%253A%2520rgb(51%2520%252C%252051%2520%252C%252051)%2526quot%253B%2526gt%253BApplication%2526lt%253B%252Fspan%2526gt%253B%2522%2520style%253D%2522text%253Bhtml%253D1%253Balign%253Dcenter%253BverticalAlign%253Dmiddle%253Bresizable%253D0%253Bpoints%253D%255B%255D%253Bautosize%253D1%253BstrokeColor%253Dnone%253BfillColor%253Dnone%253B%2522%2520vertex%253D%25221%2522%2520parent%253D%25221%2522%253E%253CmxGeometry%2520x%253D%2522976%2522%2520y%253D%2522679.984375%2522%2520width%253D%252269%2522%2520height%253D%252218%2522%2520as%253D%2522geometry%2522%252F%253E%253C%252FmxCell%253E%253C%252Froot%253E%253C%252FmxGraphModel%253E%26lt%3B%2Fspan%26gt%3B%26lt%3Bbr%26gt%3B%26lt%3B%2Fh2%26gt%3B%26lt%3Bp%26gt%3B%26lt%3B%2Fp%26gt%3B%22%20style%3D%22html%3D1%3BdropTarget%3D0%3BstrokeColor%3D%2382b366%3BfillColor%3D%23d5e8d4%3B%22%20vertex%3D%221%22%20parent%3D%221%22%3E%3CmxGeometry%20x%3D%22854%22%20y%3D%22688.5%22%20width%3D%22133%22%20height%3D%2248%22%20as%3D%22geometry%22%2F%3E%3C%2FmxCell%3E%3CmxCell%20id%3D%223%22%20value%3D%22%22%20style%3D%22shape%3Dmodule%3BjettyWidth%3D8%3BjettyHeight%3D4%3BstrokeColor%3D%23999999%3B%22%20vertex%3D%221%22%20parent%3D%222%22%3E%3CmxGeometry%20x%3D%221%22%20width%3D%2220%22%20height%3D%2220%22%20relative%3D%221%22%20as%3D%22geometry%22%3E%3CmxPoint%20x%3D%22-27%22%20y%3D%227%22%20as%3D%22offset%22%2F%3E%3C%2FmxGeometry%3E%3C%2FmxCell%3E%3CmxCell%20id%3D%224%22%20value%3D%22%26lt%3Bspan%20style%3D%26quot%3Bcolor%3A%20rgb(51%20%2C%2051%20%2C%2051)%26quot%3B%26gt%3B%26lt%3Bb%26gt%3BDirectory%26lt%3B%2Fb%26gt%3B%26lt%3B%2Fspan%26gt%3B%22%20style%3D%22text%3Bhtml%3D1%3Balign%3Dcenter%3BverticalAlign%3Dmiddle%3Bresizable%3D0%3Bpoints%3D%5B%5D%3Bautosize%3D1%3BstrokeColor%3Dnone%3BfillColor%3Dnone%3B%22%20vertex%3D%221%22%20parent%3D%221%22%3E%3CmxGeometry%20x%3D%22886%22%20y%3D%22696.504375%22%20width%3D%2263%22%20height%3D%2218%22%20as%3D%22geometry%22%2F%3E%3C%2FmxCell%3E%3CmxCell%20id%3D%225%22%20value%3D%22%26lt%3Bfont%20color%3D%26quot%3B%23333333%26quot%3B%26gt%3B%26lt%3Bb%26gt%3BService%26lt%3B%2Fb%26gt%3B%26lt%3B%2Ffont%26gt%3B%22%20style%3D%22text%3Bhtml%3D1%3Balign%3Dcenter%3BverticalAlign%3Dmiddle%3Bresizable%3D0%3Bpoints%3D%5B%5D%3Bautosize%3D1%3BstrokeColor%3Dnone%3BfillColor%3Dnone%3B%22%20vertex%3D%221%22%20parent%3D%221%22%3E%3CmxGeometry%20x%3D%22889%22%20y%3D%22714.504375%22%20width%3D%2253%22%20height%3D%2218%22%20as%3D%22geometry%22%2F%3E%3C%2FmxCell%3E%3C%2Froot%3E%3C%2FmxGraphModel%3E&lt;/span&gt;" style="rounded=0;whiteSpace=wrap;html=1;dashed=1;" vertex="1" parent="1">
          <mxGeometry x="1002" y="1303" width="469" height="323" as="geometry" />
        </mxCell>
        <mxCell id="fNet2IkVntBWjfgV5bNR-113" value="&lt;font style=&quot;font-size: 14px&quot;&gt;Cổng thông tin phòng chống dịch bệnh Covidmap&lt;/font&gt;" style="text;html=1;strokeColor=none;fillColor=none;align=center;verticalAlign=middle;whiteSpace=wrap;rounded=0;fontColor=#4A4A4A;fontStyle=2" vertex="1" parent="1">
          <mxGeometry x="1056.25" y="1597" width="360.5" height="30" as="geometry" />
        </mxCell>
        <mxCell id="6HBXbWuuw8Cn5HTv_wCw-30" style="edgeStyle=orthogonalEdgeStyle;rounded=0;orthogonalLoop=1;jettySize=auto;html=1;fontSize=14;strokeColor=#000066;" edge="1" parent="1" source="6HBXbWuuw8Cn5HTv_wCw-1" target="6HBXbWuuw8Cn5HTv_wCw-10">
          <mxGeometry relative="1" as="geometry">
            <Array as="points">
              <mxPoint x="1092" y="1381" />
              <mxPoint x="1092" y="1381" />
            </Array>
          </mxGeometry>
        </mxCell>
        <mxCell id="6HBXbWuuw8Cn5HTv_wCw-31" style="edgeStyle=orthogonalEdgeStyle;rounded=0;orthogonalLoop=1;jettySize=auto;html=1;fontSize=14;strokeColor=#000066;" edge="1" parent="1" source="6HBXbWuuw8Cn5HTv_wCw-1" target="6HBXbWuuw8Cn5HTv_wCw-20">
          <mxGeometry relative="1" as="geometry">
            <Array as="points">
              <mxPoint x="1380" y="1386" />
              <mxPoint x="1380" y="1386" />
            </Array>
          </mxGeometry>
        </mxCell>
        <mxCell id="6HBXbWuuw8Cn5HTv_wCw-32" style="edgeStyle=orthogonalEdgeStyle;rounded=0;orthogonalLoop=1;jettySize=auto;html=1;entryX=0.5;entryY=0;entryDx=0;entryDy=0;fontSize=14;strokeColor=#000066;" edge="1" parent="1" source="6HBXbWuuw8Cn5HTv_wCw-1" target="6HBXbWuuw8Cn5HTv_wCw-15">
          <mxGeometry relative="1" as="geometry">
            <Array as="points">
              <mxPoint x="1237" y="1384" />
            </Array>
          </mxGeometry>
        </mxCell>
        <mxCell id="6HBXbWuuw8Cn5HTv_wCw-1" value="NGINX Ingress" style="rounded=1;whiteSpace=wrap;html=1;fillColor=#ffe6cc;strokeColor=#d79b00;arcSize=9;" vertex="1" parent="1">
          <mxGeometry x="1023" y="1327" width="423" height="37" as="geometry" />
        </mxCell>
        <mxCell id="6HBXbWuuw8Cn5HTv_wCw-8" value="" style="group" vertex="1" connectable="0" parent="1">
          <mxGeometry x="1168" y="1235" width="133" height="48" as="geometry" />
        </mxCell>
        <mxCell id="6HBXbWuuw8Cn5HTv_wCw-2" value="&lt;p style=&quot;line-height: 0.7&quot;&gt;&lt;/p&gt;&lt;h2 style=&quot;font-size: 13px&quot;&gt;&lt;span style=&quot;color: rgba(0 , 0 , 0 , 0) ; font-family: monospace ; font-size: 0px ; font-weight: 400&quot;&gt;%3CmxGraphModel%3E%3Croot%3E%3CmxCell%20id%3D%220%22%2F%3E%3CmxCell%20id%3D%221%22%20parent%3D%220%22%2F%3E%3CmxCell%20id%3D%222%22%20value%3D%22%26lt%3Bspan%20style%3D%26quot%3Bcolor%3A%20rgb(51%20%2C%2051%20%2C%2051)%26quot%3B%26gt%3BApplication%26lt%3B%2Fspan%26gt%3B%22%20style%3D%22text%3Bhtml%3D1%3Balign%3Dcenter%3BverticalAlign%3Dmiddle%3Bresizable%3D0%3Bpoints%3D%5B%5D%3Bautosize%3D1%3BstrokeColor%3Dnone%3BfillColor%3Dnone%3B%22%20vertex%3D%221%22%20parent%3D%221%22%3E%3CmxGeometry%20x%3D%22976%22%20y%3D%22679.984375%22%20width%3D%2269%22%20height%3D%2218%22%20as%3D%22geometry%22%2F%3E%3C%2FmxCell%3E%3C%2Froot%3E%3C%2FmxGraphModel%3E&lt;/span&gt;&lt;br&gt;&lt;/h2&gt;&lt;p&gt;&lt;/p&gt;" style="html=1;dropTarget=0;strokeColor=#d6b656;fillColor=#fff2cc;" vertex="1" parent="6HBXbWuuw8Cn5HTv_wCw-8">
          <mxGeometry width="133" height="48" as="geometry" />
        </mxCell>
        <mxCell id="6HBXbWuuw8Cn5HTv_wCw-3" value="" style="shape=module;jettyWidth=8;jettyHeight=4;strokeColor=#999999;" vertex="1" parent="6HBXbWuuw8Cn5HTv_wCw-2">
          <mxGeometry x="1" width="20" height="20" relative="1" as="geometry">
            <mxPoint x="-27" y="7" as="offset" />
          </mxGeometry>
        </mxCell>
        <mxCell id="6HBXbWuuw8Cn5HTv_wCw-4" value="&lt;font color=&quot;#333333&quot;&gt;&lt;b&gt;Web&lt;/b&gt;&lt;/font&gt;" style="text;html=1;align=center;verticalAlign=middle;resizable=0;points=[];autosize=1;strokeColor=none;fillColor=none;" vertex="1" parent="6HBXbWuuw8Cn5HTv_wCw-8">
          <mxGeometry x="44" y="8.004374999999982" width="35" height="18" as="geometry" />
        </mxCell>
        <mxCell id="6HBXbWuuw8Cn5HTv_wCw-5" value="&lt;font color=&quot;#333333&quot;&gt;&lt;b&gt;Covidmap&lt;/b&gt;&lt;/font&gt;" style="text;html=1;align=center;verticalAlign=middle;resizable=0;points=[];autosize=1;strokeColor=none;fillColor=none;" vertex="1" parent="6HBXbWuuw8Cn5HTv_wCw-8">
          <mxGeometry x="28" y="26.004374999999982" width="68" height="18" as="geometry" />
        </mxCell>
        <mxCell id="6HBXbWuuw8Cn5HTv_wCw-9" value="" style="group" vertex="1" connectable="0" parent="1">
          <mxGeometry x="1025" y="1394" width="133" height="48" as="geometry" />
        </mxCell>
        <mxCell id="6HBXbWuuw8Cn5HTv_wCw-10" value="&lt;p style=&quot;line-height: 0.7&quot;&gt;&lt;/p&gt;&lt;h2 style=&quot;font-size: 13px&quot;&gt;&lt;span style=&quot;color: rgba(0 , 0 , 0 , 0) ; font-family: monospace ; font-size: 0px ; font-weight: 400&quot;&gt;%3CmxGraphModel%3E%3Croot%3E%3CmxCell%20id%3D%220%22%2F%3E%3CmxCell%20id%3D%221%22%20parent%3D%220%22%2F%3E%3CmxCell%20id%3D%222%22%20value%3D%22%26lt%3Bspan%20style%3D%26quot%3Bcolor%3A%20rgb(51%20%2C%2051%20%2C%2051)%26quot%3B%26gt%3BApplication%26lt%3B%2Fspan%26gt%3B%22%20style%3D%22text%3Bhtml%3D1%3Balign%3Dcenter%3BverticalAlign%3Dmiddle%3Bresizable%3D0%3Bpoints%3D%5B%5D%3Bautosize%3D1%3BstrokeColor%3Dnone%3BfillColor%3Dnone%3B%22%20vertex%3D%221%22%20parent%3D%221%22%3E%3CmxGeometry%20x%3D%22976%22%20y%3D%22679.984375%22%20width%3D%2269%22%20height%3D%2218%22%20as%3D%22geometry%22%2F%3E%3C%2FmxCell%3E%3C%2Froot%3E%3C%2FmxGraphModel%3E&lt;/span&gt;&lt;br&gt;&lt;/h2&gt;&lt;p&gt;&lt;/p&gt;" style="html=1;dropTarget=0;strokeColor=#82b366;fillColor=#d5e8d4;" vertex="1" parent="6HBXbWuuw8Cn5HTv_wCw-9">
          <mxGeometry width="133" height="48" as="geometry" />
        </mxCell>
        <mxCell id="6HBXbWuuw8Cn5HTv_wCw-11" value="" style="shape=module;jettyWidth=8;jettyHeight=4;strokeColor=#999999;" vertex="1" parent="6HBXbWuuw8Cn5HTv_wCw-10">
          <mxGeometry x="1" width="20" height="20" relative="1" as="geometry">
            <mxPoint x="-27" y="7" as="offset" />
          </mxGeometry>
        </mxCell>
        <mxCell id="6HBXbWuuw8Cn5HTv_wCw-12" value="&lt;span style=&quot;color: rgb(51 , 51 , 51)&quot;&gt;&lt;b&gt;Service&lt;/b&gt;&lt;/span&gt;" style="text;html=1;align=center;verticalAlign=middle;resizable=0;points=[];autosize=1;strokeColor=none;fillColor=none;" vertex="1" parent="6HBXbWuuw8Cn5HTv_wCw-9">
          <mxGeometry x="35" y="8.004374999999982" width="53" height="18" as="geometry" />
        </mxCell>
        <mxCell id="6HBXbWuuw8Cn5HTv_wCw-13" value="&lt;font color=&quot;#333333&quot;&gt;&lt;b&gt;Health&lt;/b&gt;&lt;/font&gt;" style="text;html=1;align=center;verticalAlign=middle;resizable=0;points=[];autosize=1;strokeColor=none;fillColor=none;" vertex="1" parent="6HBXbWuuw8Cn5HTv_wCw-9">
          <mxGeometry x="38" y="26.004374999999982" width="47" height="18" as="geometry" />
        </mxCell>
        <mxCell id="6HBXbWuuw8Cn5HTv_wCw-14" value="" style="group" vertex="1" connectable="0" parent="1">
          <mxGeometry x="1170" y="1394" width="133" height="48" as="geometry" />
        </mxCell>
        <mxCell id="6HBXbWuuw8Cn5HTv_wCw-15" value="&lt;p style=&quot;line-height: 0.7&quot;&gt;&lt;/p&gt;&lt;h2 style=&quot;font-size: 13px&quot;&gt;&lt;span style=&quot;color: rgba(0 , 0 , 0 , 0) ; font-family: monospace ; font-size: 0px ; font-weight: 400&quot;&gt;%3CmxGraphModel%3E%3Croot%3E%3CmxCell%20id%3D%220%22%2F%3E%3CmxCell%20id%3D%221%22%20parent%3D%220%22%2F%3E%3CmxCell%20id%3D%222%22%20value%3D%22%26lt%3Bspan%20style%3D%26quot%3Bcolor%3A%20rgb(51%20%2C%2051%20%2C%2051)%26quot%3B%26gt%3BApplication%26lt%3B%2Fspan%26gt%3B%22%20style%3D%22text%3Bhtml%3D1%3Balign%3Dcenter%3BverticalAlign%3Dmiddle%3Bresizable%3D0%3Bpoints%3D%5B%5D%3Bautosize%3D1%3BstrokeColor%3Dnone%3BfillColor%3Dnone%3B%22%20vertex%3D%221%22%20parent%3D%221%22%3E%3CmxGeometry%20x%3D%22976%22%20y%3D%22679.984375%22%20width%3D%2269%22%20height%3D%2218%22%20as%3D%22geometry%22%2F%3E%3C%2FmxCell%3E%3C%2Froot%3E%3C%2FmxGraphModel%3E&lt;/span&gt;&lt;br&gt;&lt;/h2&gt;&lt;p&gt;&lt;/p&gt;" style="html=1;dropTarget=0;strokeColor=#82b366;fillColor=#d5e8d4;" vertex="1" parent="6HBXbWuuw8Cn5HTv_wCw-14">
          <mxGeometry width="133" height="48" as="geometry" />
        </mxCell>
        <mxCell id="6HBXbWuuw8Cn5HTv_wCw-16" value="" style="shape=module;jettyWidth=8;jettyHeight=4;strokeColor=#999999;" vertex="1" parent="6HBXbWuuw8Cn5HTv_wCw-15">
          <mxGeometry x="1" width="20" height="20" relative="1" as="geometry">
            <mxPoint x="-27" y="7" as="offset" />
          </mxGeometry>
        </mxCell>
        <mxCell id="6HBXbWuuw8Cn5HTv_wCw-17" value="&lt;span style=&quot;color: rgb(51 , 51 , 51)&quot;&gt;&lt;b&gt;Service&lt;/b&gt;&lt;/span&gt;" style="text;html=1;align=center;verticalAlign=middle;resizable=0;points=[];autosize=1;strokeColor=none;fillColor=none;" vertex="1" parent="6HBXbWuuw8Cn5HTv_wCw-14">
          <mxGeometry x="35" y="8.004374999999982" width="53" height="18" as="geometry" />
        </mxCell>
        <mxCell id="6HBXbWuuw8Cn5HTv_wCw-18" value="&lt;font color=&quot;#333333&quot;&gt;&lt;b&gt;Place&lt;/b&gt;&lt;/font&gt;" style="text;html=1;align=center;verticalAlign=middle;resizable=0;points=[];autosize=1;strokeColor=none;fillColor=none;" vertex="1" parent="6HBXbWuuw8Cn5HTv_wCw-14">
          <mxGeometry x="41" y="26.004374999999982" width="41" height="18" as="geometry" />
        </mxCell>
        <mxCell id="6HBXbWuuw8Cn5HTv_wCw-19" value="" style="group" vertex="1" connectable="0" parent="1">
          <mxGeometry x="1313" y="1394" width="133" height="48" as="geometry" />
        </mxCell>
        <mxCell id="6HBXbWuuw8Cn5HTv_wCw-20" value="&lt;p style=&quot;line-height: 0.7&quot;&gt;&lt;/p&gt;&lt;h2 style=&quot;font-size: 13px&quot;&gt;&lt;span style=&quot;color: rgba(0 , 0 , 0 , 0) ; font-family: monospace ; font-size: 0px ; font-weight: 400&quot;&gt;%3CmxGraphModel%3E%3Croot%3E%3CmxCell%20id%3D%220%22%2F%3E%3CmxCell%20id%3D%221%22%20parent%3D%220%22%2F%3E%3CmxCell%20id%3D%222%22%20value%3D%22%26lt%3Bspan%20style%3D%26quot%3Bcolor%3A%20rgb(51%20%2C%2051%20%2C%2051)%26quot%3B%26gt%3BApplication%26lt%3B%2Fspan%26gt%3B%22%20style%3D%22text%3Bhtml%3D1%3Balign%3Dcenter%3BverticalAlign%3Dmiddle%3Bresizable%3D0%3Bpoints%3D%5B%5D%3Bautosize%3D1%3BstrokeColor%3Dnone%3BfillColor%3Dnone%3B%22%20vertex%3D%221%22%20parent%3D%221%22%3E%3CmxGeometry%20x%3D%22976%22%20y%3D%22679.984375%22%20width%3D%2269%22%20height%3D%2218%22%20as%3D%22geometry%22%2F%3E%3C%2FmxCell%3E%3C%2Froot%3E%3C%2FmxGraphModel%3E&lt;/span&gt;&lt;br&gt;&lt;/h2&gt;&lt;p&gt;&lt;/p&gt;" style="html=1;dropTarget=0;strokeColor=#82b366;fillColor=#d5e8d4;" vertex="1" parent="6HBXbWuuw8Cn5HTv_wCw-19">
          <mxGeometry width="133" height="48" as="geometry" />
        </mxCell>
        <mxCell id="6HBXbWuuw8Cn5HTv_wCw-21" value="" style="shape=module;jettyWidth=8;jettyHeight=4;strokeColor=#999999;" vertex="1" parent="6HBXbWuuw8Cn5HTv_wCw-20">
          <mxGeometry x="1" width="20" height="20" relative="1" as="geometry">
            <mxPoint x="-27" y="7" as="offset" />
          </mxGeometry>
        </mxCell>
        <mxCell id="6HBXbWuuw8Cn5HTv_wCw-22" value="&lt;span style=&quot;color: rgb(51 , 51 , 51)&quot;&gt;&lt;b&gt;Service&lt;/b&gt;&lt;/span&gt;" style="text;html=1;align=center;verticalAlign=middle;resizable=0;points=[];autosize=1;strokeColor=none;fillColor=none;" vertex="1" parent="6HBXbWuuw8Cn5HTv_wCw-19">
          <mxGeometry x="35" y="8.004374999999982" width="53" height="18" as="geometry" />
        </mxCell>
        <mxCell id="6HBXbWuuw8Cn5HTv_wCw-23" value="&lt;font color=&quot;#333333&quot;&gt;&lt;b&gt;Postman&lt;/b&gt;&lt;/font&gt;" style="text;html=1;align=center;verticalAlign=middle;resizable=0;points=[];autosize=1;strokeColor=none;fillColor=none;" vertex="1" parent="6HBXbWuuw8Cn5HTv_wCw-19">
          <mxGeometry x="31" y="26.004374999999982" width="61" height="18" as="geometry" />
        </mxCell>
        <mxCell id="6HBXbWuuw8Cn5HTv_wCw-33" style="edgeStyle=orthogonalEdgeStyle;rounded=0;orthogonalLoop=1;jettySize=auto;html=1;fontSize=14;strokeColor=#000066;" edge="1" parent="1" source="6HBXbWuuw8Cn5HTv_wCw-2" target="6HBXbWuuw8Cn5HTv_wCw-1">
          <mxGeometry relative="1" as="geometry" />
        </mxCell>
        <mxCell id="6HBXbWuuw8Cn5HTv_wCw-41" style="edgeStyle=orthogonalEdgeStyle;rounded=0;orthogonalLoop=1;jettySize=auto;html=1;entryX=0.007;entryY=0.592;entryDx=0;entryDy=0;entryPerimeter=0;fontSize=14;strokeColor=#FFB570;" edge="1" parent="1" source="6HBXbWuuw8Cn5HTv_wCw-34" target="6HBXbWuuw8Cn5HTv_wCw-39">
          <mxGeometry relative="1" as="geometry">
            <Array as="points">
              <mxPoint x="1237" y="1567" />
            </Array>
          </mxGeometry>
        </mxCell>
        <mxCell id="6HBXbWuuw8Cn5HTv_wCw-34" value="MongoDB" style="shape=cylinder3;whiteSpace=wrap;html=1;boundedLbl=1;backgroundOutline=1;size=15;fontSize=14;fillColor=#dae8fc;strokeColor=#6c8ebf;" vertex="1" parent="1">
          <mxGeometry x="1189.75" y="1524" width="91.5" height="65" as="geometry" />
        </mxCell>
        <mxCell id="6HBXbWuuw8Cn5HTv_wCw-35" value="" style="group" vertex="1" connectable="0" parent="1">
          <mxGeometry x="1520.06" y="1306" width="85.88571428571429" height="169" as="geometry" />
        </mxCell>
        <mxCell id="6HBXbWuuw8Cn5HTv_wCw-36" value="" style="shape=folder;fontStyle=1;spacingTop=10;tabWidth=38;tabHeight=7;tabPosition=left;html=1;fontSize=13;strokeColor=#10739e;fillColor=#b1ddf0;" vertex="1" parent="6HBXbWuuw8Cn5HTv_wCw-35">
          <mxGeometry width="72" height="169" as="geometry" />
        </mxCell>
        <mxCell id="6HBXbWuuw8Cn5HTv_wCw-37" value="&lt;span style=&quot;color: rgb(51 , 51 , 51)&quot;&gt;&lt;b&gt;Hệ thống &lt;br&gt;ISCS1&lt;/b&gt;&lt;/span&gt;" style="text;html=1;align=center;verticalAlign=middle;resizable=0;points=[];autosize=1;strokeColor=none;fillColor=none;" vertex="1" parent="6HBXbWuuw8Cn5HTv_wCw-35">
          <mxGeometry x="4.995714285714285" y="76.00207499999995" width="62" height="32" as="geometry" />
        </mxCell>
        <mxCell id="6HBXbWuuw8Cn5HTv_wCw-38" value="" style="group" vertex="1" connectable="0" parent="1">
          <mxGeometry x="1522" y="1485" width="85.88571428571429" height="138" as="geometry" />
        </mxCell>
        <mxCell id="6HBXbWuuw8Cn5HTv_wCw-39" value="" style="shape=folder;fontStyle=1;spacingTop=10;tabWidth=38;tabHeight=7;tabPosition=left;html=1;fontSize=13;strokeColor=#b85450;fillColor=#f8cecc;" vertex="1" parent="6HBXbWuuw8Cn5HTv_wCw-38">
          <mxGeometry width="72" height="138" as="geometry" />
        </mxCell>
        <mxCell id="6HBXbWuuw8Cn5HTv_wCw-40" value="&lt;font color=&quot;#333333&quot;&gt;&lt;b&gt;Server&lt;br&gt;Backup&lt;br&gt;&lt;/b&gt;&lt;/font&gt;" style="text;html=1;align=center;verticalAlign=middle;resizable=0;points=[];autosize=1;strokeColor=none;fillColor=none;" vertex="1" parent="6HBXbWuuw8Cn5HTv_wCw-38">
          <mxGeometry x="9.995714285714286" y="61.00207499999995" width="53" height="32" as="geometry" />
        </mxCell>
        <mxCell id="6HBXbWuuw8Cn5HTv_wCw-42" style="edgeStyle=orthogonalEdgeStyle;rounded=0;orthogonalLoop=1;jettySize=auto;html=1;entryX=0.018;entryY=0.958;entryDx=0;entryDy=0;entryPerimeter=0;fontSize=14;strokeColor=#7EA6E0;exitX=0.491;exitY=1.003;exitDx=0;exitDy=0;exitPerimeter=0;" edge="1" parent="1" source="6HBXbWuuw8Cn5HTv_wCw-10" target="6HBXbWuuw8Cn5HTv_wCw-36">
          <mxGeometry relative="1" as="geometry">
            <mxPoint x="1091" y="1446" as="sourcePoint" />
            <Array as="points">
              <mxPoint x="1097" y="1442" />
              <mxPoint x="1097" y="1468" />
            </Array>
          </mxGeometry>
        </mxCell>
        <mxCell id="6HBXbWuuw8Cn5HTv_wCw-43" style="edgeStyle=orthogonalEdgeStyle;rounded=0;orthogonalLoop=1;jettySize=auto;html=1;entryX=0.002;entryY=0.958;entryDx=0;entryDy=0;entryPerimeter=0;fontSize=14;strokeColor=#7EA6E0;" edge="1" parent="1" target="6HBXbWuuw8Cn5HTv_wCw-36">
          <mxGeometry relative="1" as="geometry">
            <mxPoint x="1238" y="1442" as="sourcePoint" />
            <Array as="points">
              <mxPoint x="1245" y="1442" />
              <mxPoint x="1245" y="1468" />
            </Array>
          </mxGeometry>
        </mxCell>
        <mxCell id="6HBXbWuuw8Cn5HTv_wCw-44" style="edgeStyle=orthogonalEdgeStyle;rounded=0;orthogonalLoop=1;jettySize=auto;html=1;entryX=-0.008;entryY=0.96;entryDx=0;entryDy=0;entryPerimeter=0;fontSize=14;strokeColor=#7EA6E0;" edge="1" parent="1" target="6HBXbWuuw8Cn5HTv_wCw-36">
          <mxGeometry relative="1" as="geometry">
            <mxPoint x="1379" y="1442" as="sourcePoint" />
            <Array as="points">
              <mxPoint x="1388" y="1442" />
              <mxPoint x="1388" y="1468" />
            </Array>
          </mxGeometry>
        </mxCell>
        <mxCell id="6HBXbWuuw8Cn5HTv_wCw-45" style="edgeStyle=orthogonalEdgeStyle;rounded=0;orthogonalLoop=1;jettySize=auto;html=1;entryX=0;entryY=0.5;entryDx=0;entryDy=0;entryPerimeter=0;fontSize=14;strokeColor=#FFB570;" edge="1" parent="1" source="6HBXbWuuw8Cn5HTv_wCw-10" target="6HBXbWuuw8Cn5HTv_wCw-34">
          <mxGeometry relative="1" as="geometry">
            <Array as="points">
              <mxPoint x="1083" y="1557" />
            </Array>
          </mxGeometry>
        </mxCell>
        <mxCell id="6HBXbWuuw8Cn5HTv_wCw-46" style="edgeStyle=orthogonalEdgeStyle;rounded=0;orthogonalLoop=1;jettySize=auto;html=1;fontSize=14;strokeColor=#FFB570;" edge="1" parent="1" source="6HBXbWuuw8Cn5HTv_wCw-15" target="6HBXbWuuw8Cn5HTv_wCw-34">
          <mxGeometry relative="1" as="geometry" />
        </mxCell>
        <mxCell id="6HBXbWuuw8Cn5HTv_wCw-47" style="edgeStyle=orthogonalEdgeStyle;rounded=0;orthogonalLoop=1;jettySize=auto;html=1;entryX=1;entryY=0.5;entryDx=0;entryDy=0;entryPerimeter=0;fontSize=14;strokeColor=#FFB570;" edge="1" parent="1" source="6HBXbWuuw8Cn5HTv_wCw-20" target="6HBXbWuuw8Cn5HTv_wCw-34">
          <mxGeometry relative="1" as="geometry">
            <Array as="points">
              <mxPoint x="1370" y="1557" />
            </Array>
          </mxGeometry>
        </mxCell>
      </root>
    </mxGraphModel>
  </diagram>
</mxfile>
